# xmcd
#
# Track frame offsets: 
#        150
#        13036
#        23854
#        32637
#        48409
#        68702
#        80183
#        96120
#        105150
#        123823
#
# Disc length: 1963 seconds
#
# Revision: 0
# Processed by: cddbd v1.5.2PL0 Copyright (c) Steve Scherf et al.
# Submitted via: ExactAudioCopy v1.0b1
#
DISCID=7307a90a
DTITLE=Black Breath - Sentenced To Life
DYEAR=2012
DGENRE=Metal
TTITLE0=Feast of the Damned
TTITLE1=Sentenced To Life
TTITLE2=Forced Into Possession
TTITLE3=Home of the Grave
TTITLE4=Endless Corpse
TTITLE5=Mother Abyss
TTITLE6=Of Flesh
TTITLE7=Doomed
TTITLE8=The Flame
TTITLE9=Obey
EXTD=
EXTT0=
EXTT1=
EXTT2=
EXTT3=
EXTT4=
EXTT5=
EXTT6=
EXTT7=
EXTT8=
EXTT9=
PLAYORDER=
